# xmcd CD database file
#
# Track frame offsets:
#	150
#	34858
#	74407
#	94129
#	116635
#	141610
#	172616
#	195461
#	210675
#	238873
#	256676
#
# Disc length: 3702 seconds
#
# Revision: 3
# Processed by: cddbd v1.4PL0 Copyright (c) Steve Scherf et al.
# Submitted via: CDex 1.50
#
DISCID=9c0e740b
DTITLE=Dave Grusin - Best Of
DYEAR=2002
DGENRE=Jazz
TTITLE0=Modajl
TTITLE1=Playera
TTITLE2=Bossa Baroque
TTITLE3=Early A.M. Attitude
TTITLE4=Punda Del Soul
TTITLE5=My Man's Gone Now
TTITLE6=Fascinating Rhythm
TTITLE7=Take The "A" Train
TTITLE8=Caravan
TTITLE9=Baby Elephant Walk
TTITLE10=Peter Gunn
EXTD=YEAR: 2002
EXTT0=
EXTT1=
EXTT2=
EXTT3=
EXTT4=
EXTT5=
EXTT6=
EXTT7=
EXTT8=
EXTT9=
EXTT10=
PLAYORDER=
